<svg xmlns="http://www.w3.org/2000/svg" width="170" height="16" fill="none" viewBox="0 0 170 16"><g clip-path="url(#clip0_61_577)"><path fill="#F4F4F4" d="M19.04 15.7507H15.094L10.6187 4.01502C10.2346 3.00904 8.80539 3.00904 8.42128 4.01502L3.94601 15.7507H0L5.90897 0.251495H13.131L19.04 15.7507ZM34.0201 0.251495H30.0741L25.5988 11.9872C25.2147 12.9932 23.7855 12.9932 23.4014 11.9872L18.9261 0.251495H14.9801L20.8891 15.7507H28.1111L34.0201 0.251495ZM46.3651 15.5282C47.3008 15.2121 48.0355 14.7158 48.5692 14.0392C49.1029 13.3626 49.3709 12.4924 49.3709 11.4263C49.3709 10.7208 49.2235 10.1266 48.931 9.64585C48.6362 9.16511 48.2365 8.76228 47.7318 8.43956C47.2271 8.11685 46.6621 7.84532 46.0345 7.62721C45.4093 7.4091 44.7639 7.21769 44.1006 7.053C43.4374 6.8883 42.792 6.71915 42.1667 6.54556C41.5414 6.37196 40.9787 6.17833 40.4829 5.96022C39.9849 5.74211 39.5852 5.4639 39.2837 5.12561C38.9822 4.78731 38.8303 4.36222 38.8303 3.85255C38.8303 3.41633 38.9889 3.0224 39.306 2.66852C39.6231 2.31687 40.1055 2.03867 40.7531 1.83614C41.4007 1.63361 42.2292 1.53123 43.2409 1.53123C43.98 1.53123 44.6388 1.64028 45.2194 1.85839C45.8001 2.07651 46.2623 2.37696 46.6107 2.75977C46.9568 3.14258 47.131 3.61219 47.131 4.16859V4.5514H48.8952V4.27987C48.8952 3.52761 48.7478 2.88663 48.4553 2.35248C48.1605 1.81833 47.7496 1.37543 47.2226 1.02379C46.6956 0.669912 46.0837 0.41174 45.3914 0.247044C44.6969 0.082348 43.951 0 43.1515 0C42.0952 0 41.1841 0.0979274 40.4159 0.291557C39.6477 0.487411 39.0135 0.761163 38.5155 1.11504C38.0175 1.46891 37.649 1.89178 37.4078 2.38809C37.1666 2.88441 37.046 3.43191 37.046 4.03283C37.046 4.725 37.1934 5.30588 37.486 5.77994C37.7785 6.254 38.176 6.64793 38.674 6.96397C39.172 7.28001 39.7325 7.54263 40.3578 7.75184C40.9831 7.96105 41.6285 8.15023 42.2918 8.31493C42.955 8.47962 43.6026 8.65322 44.2368 8.8335C44.8688 9.01377 45.4316 9.22075 45.9207 9.45222C46.4097 9.68591 46.805 9.98192 47.1087 10.3425C47.4102 10.703 47.562 11.1615 47.562 11.7179C47.562 12.1986 47.4526 12.6015 47.2338 12.9242C47.0149 13.2469 46.7313 13.5095 46.3852 13.7121C46.039 13.9146 45.6571 14.0726 45.244 14.1861C44.8286 14.2996 44.4222 14.3731 44.0225 14.4109C43.6227 14.4487 43.2788 14.4665 42.993 14.4665C42.1332 14.4665 41.3605 14.3575 40.6749 14.1394C39.9894 13.9213 39.4467 13.5919 39.047 13.1468C38.6472 12.7039 38.4485 12.1519 38.4485 11.4909C38.4485 11.4152 38.4529 11.3262 38.4596 11.2194C38.4663 11.1148 38.4708 11.0324 38.4708 10.9723H36.6843C36.6686 11.048 36.6619 11.1192 36.6619 11.186V11.3996C36.6619 12.2721 36.8361 12.9999 37.1823 13.5852C37.5284 14.1705 38.0041 14.6446 38.607 15.0051C39.21 15.3657 39.9023 15.6216 40.6883 15.7708C41.4722 15.9199 42.2784 15.9956 43.1091 15.9956C44.344 15.9956 45.4294 15.8375 46.3651 15.5215V15.5282ZM64.7686 15.7307V14.1995H54.5474V8.58645H63.6386V7.03074H54.5474V1.80275H64.6324V0.2693H52.7609V15.7285H64.7686V15.7307ZM77.9041 15.3813C78.9291 14.9695 79.7398 14.333 80.3338 13.4761C80.93 12.6193 81.2271 11.531 81.2271 10.2089H79.4629C79.4629 11.186 79.2596 11.985 78.8532 12.6082C78.4468 13.2313 77.8661 13.6987 77.1113 14.0058C76.3565 14.313 75.461 14.4688 74.4204 14.4688C73.2904 14.4688 72.31 14.2596 71.4815 13.8389C70.653 13.4183 70.0121 12.7573 69.5588 11.8559C69.1054 10.9545 68.8799 9.77493 68.8799 8.31715V7.84309C68.8799 6.35415 69.1054 5.15009 69.5588 4.22646C70.0121 3.30282 70.6508 2.62401 71.4815 2.18556C72.31 1.74934 73.2837 1.53123 74.398 1.53123C75.4387 1.53123 76.3319 1.6848 77.0778 1.99416C77.8237 2.30129 78.3999 2.76867 78.8085 3.39185C79.215 4.01502 79.4182 4.81625 79.4182 5.79107H81.2271C81.2271 4.48463 80.9367 3.4052 80.3561 2.55724C79.7755 1.70928 78.976 1.07052 77.9599 0.640979C76.9416 0.21366 75.7625 0 74.4204 0C72.0845 0 70.2667 0.665461 68.9714 1.99416C67.674 3.32285 67.0263 5.32591 67.0263 8.00111C67.0263 9.78829 67.31 11.2772 67.8749 12.4635C68.4399 13.6497 69.2684 14.5355 70.3627 15.1231C71.4547 15.7084 72.7946 16.0022 74.3757 16.0022C75.7022 16.0022 76.8791 15.7952 77.9041 15.3813ZM94.0745 15.3813C95.0169 14.9695 95.7404 14.3041 96.2451 13.3871C96.7498 12.4702 97.0022 11.2839 97.0022 9.82612V0.2693H95.238V10.1867C95.238 11.6133 94.8338 12.6816 94.0276 13.3871C93.2214 14.0926 92.1026 14.4465 90.6689 14.4465C89.2352 14.4465 88.1767 14.0949 87.4018 13.3871C86.6246 12.6816 86.2361 11.6133 86.2361 10.1867V0.2693H84.4495V9.8239C84.4495 11.2817 84.6996 12.4679 85.1954 13.3849C85.6934 14.3019 86.4058 14.9673 87.3325 15.3791C88.2593 15.793 89.3714 16 90.6689 16C91.9664 16 93.1299 15.793 94.0723 15.3791L94.0745 15.3813ZM111.098 9.05828C111.926 8.74225 112.594 8.20587 113.099 7.44693C113.604 6.688 113.856 5.75991 113.856 4.6649C113.856 3.82139 113.688 3.07136 113.349 2.41035C113.01 1.74934 112.505 1.22632 111.835 0.843511C111.165 0.460704 110.314 0.2693 109.289 0.2693H101.147V15.7285H102.936V9.37432H109.334L112.431 15.7285H114.399L111.096 9.05828H111.098ZM109.108 7.84087H102.936V1.80053H109.108C109.756 1.80053 110.301 1.91849 110.738 2.14995C111.176 2.38364 111.507 2.71081 111.734 3.12923C111.958 3.55209 112.072 4.06176 112.072 4.66268C112.072 5.65531 111.808 6.43205 111.281 6.99291C110.754 7.55821 110.03 7.83864 109.11 7.83864L109.108 7.84087ZM119.504 15.7307V0.2693H117.717V15.7285H119.504V15.7307ZM129.106 15.7307V1.82501H134.647V0.2693H121.826V1.82501H127.322V15.7307H129.108H129.106ZM138.776 15.7307V0.2693H136.989V15.7285H138.776V15.7307ZM154.928 15.7307V14.1995H144.707V8.58645H153.798V7.03074H144.707V1.80275H154.792V0.2693H142.921V15.7285H154.928V15.7307ZM166.992 15.5282C167.928 15.2121 168.66 14.7158 169.196 14.0392C169.732 13.3626 170 12.4924 170 11.4263C170 10.7208 169.853 10.1266 169.56 9.64585C169.265 9.16511 168.866 8.76228 168.361 8.43956C167.856 8.11685 167.291 7.84532 166.664 7.62721C166.038 7.4091 165.393 7.21769 164.73 7.053C164.066 6.8883 163.421 6.71915 162.796 6.54556C162.171 6.37196 161.608 6.17833 161.112 5.96022C160.614 5.74211 160.214 5.4639 159.913 5.12561C159.611 4.78731 159.462 4.36222 159.462 3.85255C159.462 3.41633 159.62 3.0224 159.937 2.66852C160.254 2.31687 160.737 2.03867 161.384 1.83614C162.032 1.63361 162.861 1.53123 163.872 1.53123C164.611 1.53123 165.27 1.64028 165.851 1.85839C166.431 2.07651 166.894 2.37696 167.242 2.75977C167.588 3.14258 167.762 3.61219 167.762 4.16859V4.5514H169.527V4.27987C169.527 3.52761 169.379 2.88663 169.087 2.35248C168.792 1.81833 168.381 1.37543 167.854 1.02379C167.325 0.669912 166.715 0.41174 166.023 0.247044C165.328 0.082348 164.582 0 163.783 0C162.727 0 161.815 0.0979274 161.047 0.291557C160.279 0.487411 159.645 0.761163 159.147 1.11504C158.649 1.46891 158.28 1.89178 158.039 2.38809C157.798 2.88441 157.677 3.43191 157.677 4.03283C157.677 4.725 157.825 5.30588 158.117 5.77994C158.41 6.254 158.807 6.64793 159.303 6.96397C159.801 7.28001 160.362 7.54263 160.987 7.75184C161.612 7.96105 162.258 8.15023 162.921 8.31493C163.584 8.47962 164.232 8.65322 164.866 8.8335C165.5 9.01377 166.061 9.22075 166.55 9.45222C167.039 9.68591 167.436 9.98192 167.738 10.3425C168.039 10.703 168.191 11.1615 168.191 11.7179C168.191 12.1986 168.082 12.6015 167.863 12.9242C167.644 13.2469 167.363 13.5095 167.014 13.7121C166.668 13.9146 166.286 14.0726 165.873 14.1861C165.458 14.2996 165.051 14.3731 164.652 14.4109C164.252 14.4487 163.908 14.4665 163.622 14.4665C162.762 14.4665 161.99 14.3575 161.304 14.1394C160.618 13.9213 160.074 13.5919 159.676 13.1468C159.276 12.7039 159.078 12.1519 159.078 11.4909C159.078 11.4152 159.08 11.3262 159.089 11.2194C159.095 11.1148 159.1 11.0324 159.1 10.9723H157.313C157.298 11.048 157.291 11.1192 157.291 11.186V11.3996C157.291 12.2721 157.465 12.9999 157.811 13.5852C158.158 14.1705 158.633 14.6446 159.236 15.0051C159.839 15.3657 160.534 15.6216 161.317 15.7708C162.101 15.9199 162.907 15.9956 163.736 15.9956C164.971 15.9956 166.058 15.8375 166.992 15.5215V15.5282Z"/></g><defs><clipPath id="clip0_61_577"><rect width="170" height="16" fill="#fff"/></clipPath></defs></svg>