<svg id="Componente_44_1" data-name="Componente 44 – 1" xmlns="http://www.w3.org/2000/svg" xmlns:xlink="http://www.w3.org/1999/xlink" width="215" height="50.834" viewBox="0 0 215 50.834">
  <defs>
    <linearGradient id="linear-gradient" x1="0.426" y1="0.404" x2="0.514" y2="0.763" gradientUnits="objectBoundingBox">
      <stop offset="0" stop-color="#f4c5b8"/>
      <stop offset="1" stop-color="#df5a35"/>
    </linearGradient>
    <linearGradient id="linear-gradient-2" x1="0.73" y1="1.123" x2="0.452" y2="0.078" gradientUnits="objectBoundingBox">
      <stop offset="0" stop-color="#f2f5f9"/>
      <stop offset="1" stop-color="#00338d"/>
    </linearGradient>
    <linearGradient id="linear-gradient-3" x1="0.959" y1="0.667" x2="0.068" y2="-0.052" gradientUnits="objectBoundingBox">
      <stop offset="0" stop-color="#f7d6cc"/>
      <stop offset="1" stop-color="#df5a35"/>
    </linearGradient>
  </defs>
  <path id="Trazado_333" data-name="Trazado 333" d="M70.478,15.709a8.487,8.487,0,0,0-5.138-1.336c-6.447,0-11.683,5.717-11.683,12.743,0,4.8,2.77,7.665,7.418,7.665A10.6,10.6,0,0,0,66.942,33h.072l-.588-3.82-.16.151a7.444,7.444,0,0,1-4.693,1.879c-2.324,0-3.5-1.533-3.5-4.551,0-5.423,3.562-8.665,6.964-8.665a5.664,5.664,0,0,1,3.4.894l.1.063,2-3.194Z" transform="translate(15.418 3.645)" fill="#00338d"/>
  <path id="Trazado_334" data-name="Trazado 334" d="M58.081,14.78a5.343,5.343,0,0,0-2.243-.41c-3.366,0-5.841,3.82-6.83,5.663a50.43,50.43,0,0,0,1.05-5v-.143H45.842L42.11,34.305H46.5l.365-2.012c1.585-8.754,4.569-13.776,8.176-13.776a4.578,4.578,0,0,1,1.416.256h.107L58.186,14.8Z" transform="translate(12.1 3.645)" fill="#00338d"/>
  <path id="Trazado_335" data-name="Trazado 335" d="M111.314,34.194h4.39l3.732-19.419h-4.381Z" transform="translate(31.929 3.761)" fill="#00338d"/>
  <path id="Trazado_336" data-name="Trazado 336" d="M125.128,7.427l-5.513,28.808h4.363L129.5,7.427Z" transform="translate(34.32 1.664)" fill="#00338d"/>
  <path id="Trazado_337" data-name="Trazado 337" d="M101.455,30.2a11.9,11.9,0,0,0-.231,2.167,4.147,4.147,0,0,0,.8,2.708,4.215,4.215,0,0,0,3.562,1.3,12.827,12.827,0,0,0,4.372-.8h.054l.894-4.441-.24.171a7.672,7.672,0,0,1-3.927,1.417.887.887,0,0,1-.747-.271,1.369,1.369,0,0,1-.222-.907,10.972,10.972,0,0,1,.24-1.869L107.968,19.5h5.11l.579-3.313h-5.048l1.229-6.365-4.657,1.219-1.007,5.2h-3.464l-.615,3.313h3.429l-2.071,10.661" transform="translate(28.738 2.175)" fill="#00338d"/>
  <path id="Trazado_338" data-name="Trazado 338" d="M97.493,14.371c-3.856,0-6.233,2.858-7.837,5.531a49.71,49.71,0,0,0,1.016-4.871v-.143H86.456L82.733,34.306h4.39l.356-2.012c1.9-10.445,5.5-14.168,8.245-14.168a1.568,1.568,0,0,1,1.278.5,3.794,3.794,0,0,1,.24,3.028L94.9,34.3h4.354l2.494-12.877c.48-2.467.2-4.452-.81-5.646a4.239,4.239,0,0,0-3.446-1.407Z" transform="translate(23.777 3.644)" fill="#00338d"/>
  <path id="Trazado_340" data-name="Trazado 340" d="M85.712,15.332A18.7,18.7,0,0,0,79.3,14.37c-7.249,0-12.511,5.984-12.511,14.247,0,3.82,2,6.233,5.219,6.233,3.481,0,5.494-2.564,7.124-5.441a42.642,42.642,0,0,0-.781,4.837v.128h4.328v-.128a61.226,61.226,0,0,1,1.265-9.03l1.888-9.8Zm-5.04,4.1c-.971,6.323-4.284,11.657-7.24,11.657-1.442,0-2.119-1-2.119-3.143-.027-5.8,3.126-10.161,7.282-10.161a9.974,9.974,0,0,1,2.3.267C80.858,18.235,80.672,19.437,80.672,19.437Z" transform="translate(19.195 3.648)" fill="#00338d"/>
  <path id="Trazado_341" data-name="Trazado 341" d="M18.319,27.265l-1.727,3.393s-.1.2-.178.392c-.045-.347-.116-1.016-.116-1.016l-.339-2.77L13.126,9.1H8.791L-.008,35.77H4.336l4.983-15.8c.5-1.577.819-2.752.989-3.481v.222l.41,3.082,2.521,15.97H17.6l8.781-16.1s1.389-2.8,1.559-3.126c-.1.713-.2,1.781-.3,3.384l-.97,15.844H31.29L32.647,9.1H28.195Z" transform="translate(0.007 2.142)" fill="#00338d"/>
  <path id="Trazado_343" data-name="Trazado 343" d="M45.126,19.16c0-2.956-2.252-4.791-5.868-4.791-6.287,0-11.4,5.841-11.4,13.031,0,4.551,2.811,7.373,7.32,7.373A11.692,11.692,0,0,0,42.117,32.6h.063l-.615-3.9-.169.128a10.093,10.093,0,0,1-5.616,2.407c-2.306,0-3.472-1.4-3.472-4.159v-.256C40.808,25.8,45.126,23.22,45.126,19.16Zm-6.491-1.371c1.541,0,2.261.561,2.261,1.781,0,2.725-4.452,3.909-8.335,4.452C33.442,20.3,35.918,17.789,38.635,17.789Z" transform="translate(8.01 3.649)" fill="#00338d"/>
  <path id="Trazado_344" data-name="Trazado 344" d="M117.166,8.486a2.413,2.413,0,1,0,2.564,2.4,2.494,2.494,0,0,0-2.564-2.4Z" transform="translate(32.942 1.887)" fill="#00338d"/>
  <g id="Grupo_58689" data-name="Grupo 58689" transform="translate(167.642)">
    <g id="Grupo_89" data-name="Grupo 89" transform="translate(0 0)">
      <path id="Trazado_177" data-name="Trazado 177" d="M59.145,15.7c.654,5.986-4.691,11.972-13.479,16.221A27.049,27.049,0,0,1,31.95,51.49C50.6,50.772,65.44,39.518,65.44,26.232A23.943,23.943,0,0,0,51.843,6a13.035,13.035,0,0,1,7.3,9.7Z" transform="translate(-18.083 -0.714)" fill="#fae831"/>
      <path id="Trazado_179" data-name="Trazado 179" d="M64.479,20.013a12.944,12.944,0,0,0-7.3-9.619L54.68,9.147A46.141,46.141,0,0,0,35.443,5.111H30.87V5.4h0A26.84,26.84,0,0,1,51.356,31.475a27.2,27.2,0,0,1-.3,4.153C59.728,31.832,65.133,25.953,64.479,20.013Z" transform="translate(-23.417 -5.11)" fill="#009fda"/>
      <path id="Trazado_181" data-name="Trazado 181" d="M35.406,16.218c-1.846,0-5.229.357-5.523.415s-.415.415,0,.475a16.918,16.918,0,0,1,13.6,12.647h0A26.84,26.84,0,0,0,57.2,10.34a66.861,66.861,0,0,1-21.792,5.878Z" transform="translate(-29.615 21.078)" fill="#fae831"/>
    </g>
    <path id="Trazado_178" data-name="Trazado 178" d="M59.145,15.7c.654,5.986-4.691,11.972-13.479,16.221A27.049,27.049,0,0,1,31.95,51.49C50.6,50.772,65.44,39.518,65.44,26.232A23.943,23.943,0,0,0,51.843,6a13.035,13.035,0,0,1,7.3,9.7Z" transform="translate(-18.083 -0.714)" fill="url(#linear-gradient)" style="mix-blend-mode: multiply;isolation: isolate"/>
    <path id="Trazado_180" data-name="Trazado 180" d="M64.479,20.013a12.944,12.944,0,0,0-7.3-9.619L54.68,9.147A46.141,46.141,0,0,0,35.443,5.111H30.87V5.4h0A26.84,26.84,0,0,1,51.356,31.475a27.2,27.2,0,0,1-.3,4.153C59.728,31.832,65.133,25.953,64.479,20.013Z" transform="translate(-23.417 -5.11)" fill="url(#linear-gradient-2)" style="mix-blend-mode: multiply;isolation: isolate"/>
    <path id="Trazado_182" data-name="Trazado 182" d="M35.406,16.218c-1.846,0-5.229.357-5.523.415s-.415.415,0,.475a16.918,16.918,0,0,1,13.6,12.647h0A26.84,26.84,0,0,0,57.2,10.34a66.861,66.861,0,0,1-21.792,5.878Z" transform="translate(-29.615 21.078)" fill="url(#linear-gradient-3)" style="mix-blend-mode: multiply;isolation: isolate"/>
  </g>
</svg>
